<svg width="144" height="130" viewBox="0 0 144 130" fill="none" xmlns="http://www.w3.org/2000/svg">
<circle cx="78.9171" cy="64.9198" r="64.9198" fill="#FADEDF"/>
<circle cx="18.4987" cy="102.499" r="18.4987" fill="#FADEDF"/>
<circle cx="130.914" cy="23.9142" r="12.9142" fill="#FADEDF"/>
<g clip-path="url(#clip0)">
<path d="M79 115C107.167 115 130 92.1665 130 64C130 35.8335 107.167 13 79 13C50.8335 13 28 35.8335 28 64C28 92.1665 50.8335 115 79 115Z" fill="#E84C4F"/>
<g filter="url(#filter0_d)">
<path d="M130 64C130 58.0904 128.991 52.417 127.143 47.1385L106.091 26.0873C106.091 26.0873 91.7839 30.1655 89.5253 36.1759L80.321 27.3147L74.9491 34.3178L67.9242 27.3147L63.2948 34.3178L55.6723 27.3147H49.2521L56.0898 51.4006C56.0898 55.3097 53.748 61.1691 53.748 61.1691L60.3037 67.7551L60.8739 103.018L72.4369 114.581C74.5857 114.857 76.7761 115 79 115C107.167 115 130 92.1665 130 64V64Z" fill="#D42C30"/>
</g>
<path d="M58.1874 62.2774H71.3858V79.6094H58.1874V62.2774Z" fill="#FFE780"/>
<path d="M64.7877 62.2768H71.3859V79.6088H64.7877V62.2768Z" fill="#FBBE2C"/>
<path d="M64.7867 104.303C61.142 104.303 58.1874 101.349 58.1874 97.704V73.8323H71.3858V97.7042C71.386 101.349 68.4314 104.303 64.7867 104.303Z" fill="#605553"/>
<path d="M92.8929 62.2774H106.091V79.6094H92.8929V62.2774Z" fill="#FFE780"/>
<path d="M99.4916 62.2768H106.092V79.6088H99.4916V62.2768Z" fill="#FBBE2C"/>
<path d="M99.4922 104.303C95.8475 104.303 92.8929 101.349 92.8929 97.704V73.8323H106.091V97.7042C106.091 101.349 103.137 104.303 99.4922 104.303V104.303Z" fill="#605553"/>
<path d="M106.092 73.8315V97.7039C106.092 101.35 103.137 104.304 99.4916 104.304V73.8315H106.092Z" fill="#4C403F"/>
<path d="M106.091 63.2735H95.0315C90.9898 63.2735 87.7134 59.9969 87.7134 55.9554V41.9551C87.7134 33.1914 94.8178 26.0873 103.581 26.0873H106.091V63.2735Z" fill="#EEF9FF"/>
<path d="M73.901 27.3145V44.0489C73.901 45.6992 72.563 47.0371 70.9127 47.0371C69.2624 47.0371 67.9244 45.6992 67.9244 44.0489V27.3145H61.649V44.0489C61.649 45.6992 60.3111 47.0371 58.6608 47.0371C57.0104 47.0371 55.6725 45.6992 55.6725 44.0489V27.3145H49.2523V51.4004C49.2523 58.5078 55.0139 64.2696 62.1214 64.2696H67.4521C74.5594 64.2696 80.3212 58.508 80.3212 51.4004V27.3145H73.901Z" fill="#EEF9FF"/>
<path d="M80.3208 27.3139V51.4014C80.3208 57.135 76.5695 61.9939 71.3859 63.6554C70.1467 64.0538 68.8239 64.269 67.4513 64.269H64.7877V27.3139H67.9254V44.0483C67.9254 45.6998 69.2622 47.0366 70.9117 47.0366H70.9137C72.5632 47.0366 73.902 45.6998 73.902 44.0483V27.3139H80.3208Z" fill="#D2EBFF"/>
<path d="M71.3859 73.8315V97.7038C71.3859 101.35 68.4314 104.304 64.7877 104.304V73.8315H71.3859Z" fill="#4C403F"/>
<path d="M106.092 26.0867V63.2729H99.4916V26.6206C100.797 26.272 102.167 26.0867 103.582 26.0867H106.092Z" fill="#D2EBFF"/>
</g>
<path d="M16.7109 91C15.6447 91 14.7773 91.8674 14.7773 92.9336V93.6211L16.0664 94.2656H16.7109H17.3555L18.6445 93.6211V92.9336C18.6445 91.8674 17.7772 91 16.7109 91Z" fill="#FF6A4D"/>
<path d="M18.6445 93.6211V92.9336C18.6445 91.8674 17.7772 91 16.7109 91V94.2656H17.3555L18.6445 93.6211Z" fill="#E64D2E"/>
<path d="M7 110.422C7.29868 111.893 8.66358 113 10.2227 113C11.7817 113 13.1896 111.893 13.4883 110.422L12.088 109.777H7.89478L7 110.422Z" fill="#474F54"/>
<path d="M10.2227 111.711C9.15643 111.711 8.28906 110.844 8.28906 109.777C8.28906 108.711 9.15643 107.844 10.2227 107.844C11.2889 107.844 12.1992 108.711 12.1992 109.777C12.1992 110.844 11.2889 111.711 10.2227 111.711Z" fill="#F2F9FF"/>
<path d="M13.4883 98.8203H9.57812L8.28906 100.109V103.977L9.57812 104.621H13.4883L15.4219 103.977V100.496L14.7773 100.109L13.4883 98.8203Z" fill="#FF9100"/>
<path d="M8.28906 97.5312V100.109H14.7773L15.4219 99.7757L14.7773 99.4648V97.5312H8.28906Z" fill="#FABE2C"/>
<path d="M17.3555 110.422H7V109.777C7 107.286 9.06293 105.266 11.5547 105.266L12.6289 104.621H18.6445V109.348L17.3555 110.422Z" fill="#FF6A4D"/>
<path d="M7 103.977H16.0664V105.266H7V103.977Z" fill="#32393F"/>
<path d="M20.5781 107.238V109.661L19.9336 110.422H17.3555V105.266H16.0664C15.3574 105.266 14.7773 104.686 14.7773 103.977V100.754H18.6445V102.688C19.3535 102.688 19.9336 103.268 19.9336 103.977V106.555L20.5781 107.238Z" fill="#575F64"/>
<path d="M20.5781 107.238V109.661L19.9336 110.422H17.3555V105.266H16.7109V100.754H18.6445V102.688C19.3535 102.688 19.9336 103.268 19.9336 103.977V106.555L20.5781 107.238Z" fill="#474F54"/>
<path d="M18.6445 100.109V99.4648C18.6445 98.3986 17.7772 97.5312 16.7109 97.5312C15.6447 97.5312 14.7773 98.3986 14.7773 99.4648V100.754C14.7773 101.822 15.643 102.688 16.7109 102.688H21.9102C22.9781 102.688 23.8438 101.822 23.8438 100.754V100.109H18.6445Z" fill="#FF6A4D"/>
<path d="M23.8438 100.754V100.109H18.6445V99.4648C18.6445 98.3986 17.7772 97.5312 16.7109 97.5312V102.688H21.9102C22.9781 102.688 23.8438 101.822 23.8438 100.754Z" fill="#E64D2E"/>
<path d="M17.3555 94.2656H16.7109H16.0664L14.7773 94.9102V95.5547C14.7773 96.6209 15.6447 97.5312 16.7109 97.5312C17.7772 97.5312 18.6445 96.6209 18.6445 95.5547V94.9102L17.3555 94.2656Z" fill="#FFE1BA"/>
<path d="M18.6445 95.5547V94.9102L17.3555 94.2656H16.7109V97.5312C17.7772 97.5312 18.6445 96.6209 18.6445 95.5547Z" fill="#FFBFAB"/>
<path d="M16.7109 93.6211H14.7773V94.9102H16.7109H19.9336V93.6211H16.7109Z" fill="#474F54"/>
<path d="M16.7109 93.6211H19.9336V94.9102H16.7109V93.6211Z" fill="#32393F"/>
<path d="M25.62 104.121C25.5489 103.619 25.4079 102.631 25.1265 100.663L22.5547 99.4648V104.621C22.5547 105.638 21.6788 106.555 20.5781 106.555H19.9336V110.422H21.2227H27.7109L29 109.777V108.488C29 106.426 27.5775 104.629 25.62 104.121V104.121Z" fill="#E64D2E"/>
<path d="M26.4219 101.398H24.4883C23.4221 101.398 22.5547 100.531 22.5547 99.4648C22.5547 98.3986 23.4221 97.5312 24.4883 97.5312H26.4219V101.398Z" fill="#FF6A4D"/>
<path d="M25.971 106.574L25.7836 107.29L24.6943 106.755C23.4512 107.203 22.5547 108.382 22.5547 109.777C22.5547 111.554 24.0005 113 25.7773 113C27.5542 113 29 111.554 29 109.777C29 108.067 27.6562 106.677 25.971 106.574V106.574Z" fill="#32393F"/>
<path d="M25.7773 107.844C24.7111 107.844 23.8438 108.711 23.8438 109.777C23.8438 110.844 24.7111 111.711 25.7773 111.711C26.8436 111.711 27.7109 110.844 27.7109 109.777C27.7109 108.711 26.8436 107.844 25.7773 107.844Z" fill="#DFE7F4"/>
<path d="M26.4156 109.686L25.9711 106.574C25.9056 106.57 25.8437 106.555 25.7773 106.555C25.3957 106.555 25.0344 106.633 24.6944 106.755L25.1391 109.869L26.4156 109.686Z" fill="#C7CFE1"/>
<path d="M127.022 21.375C127.008 21.2 127 21.023 127 20.8437C127 17.6164 129.463 15 132.5 15C135.538 15 138 17.6164 138 20.8437C138 21.0228 137.992 21.2 137.978 21.375H138C138 24.5686 132.5 32 132.5 32C132.5 32 127 24.5861 127 21.375H127.022ZM132.5 22.4375C133.68 22.4715 134.665 21.5208 134.7 20.3125C134.665 19.1042 133.68 18.1535 132.5 18.1875C131.32 18.1535 130.336 19.1042 130.3 20.3125C130.336 21.5208 131.32 22.4715 132.5 22.4375Z" fill="#E21B1B"/>
<defs>
<filter id="filter0_d" x="45.2521" y="26.0873" width="88.7479" height="96.9127" filterUnits="userSpaceOnUse" color-interpolation-filters="sRGB">
<feFlood flood-opacity="0" result="BackgroundImageFix"/>
<feColorMatrix in="SourceAlpha" type="matrix" values="0 0 0 0 0 0 0 0 0 0 0 0 0 0 0 0 0 0 127 0" result="hardAlpha"/>
<feOffset dy="4"/>
<feGaussianBlur stdDeviation="2"/>
<feComposite in2="hardAlpha" operator="out"/>
<feColorMatrix type="matrix" values="0 0 0 0 0 0 0 0 0 0 0 0 0 0 0 0 0 0 0.25 0"/>
<feBlend mode="normal" in2="BackgroundImageFix" result="effect1_dropShadow"/>
<feBlend mode="normal" in="SourceGraphic" in2="effect1_dropShadow" result="shape"/>
</filter>
<clipPath id="clip0">
<rect width="102" height="102" fill="white" transform="translate(28 14)"/>
</clipPath>
</defs>
</svg>
